<svg xmlns="http://www.w3.org/2000/svg" xmlns:xlink="http://www.w3.org/1999/xlink" width="500" zoomAndPan="magnify" viewBox="0 0 375 374.999991" height="500" preserveAspectRatio="xMidYMid meet" version="1.0"><defs><filter x="0%" y="0%" width="100%" height="100%" id="a902f0f706"><feColorMatrix values="0 0 0 0 1 0 0 0 0 1 0 0 0 0 1 0 0 0 1 0" color-interpolation-filters="sRGB"/></filter><g/><mask id="390222fe52"><g filter="url(#a902f0f706)"><rect x="-37.5" width="450" fill="#000000" y="-37.499999" height="449.999989" fill-opacity="0.8784"/></g></mask><clipPath id="a83300143e"><path d="M 0.640625 7 L 40.960938 7 L 40.960938 108 L 0.640625 108 Z M 0.640625 7 " clip-rule="nonzero"/></clipPath><clipPath id="bd74d7817e"><rect x="0" width="41" y="0" height="109"/></clipPath><mask id="b41f14a043"><g filter="url(#a902f0f706)"><rect x="-37.5" width="450" fill="#000000" y="-37.499999" height="449.999989" fill-opacity="0.8784"/></g></mask><clipPath id="f014383bdd"><path d="M 0.878906 0.71875 L 192.398438 0.71875 L 192.398438 119.28125 L 0.878906 119.28125 Z M 0.878906 0.71875 " clip-rule="nonzero"/></clipPath><clipPath id="fd8727b70e"><rect x="0" width="193" y="0" height="120"/></clipPath><mask id="3899f207f4"><g filter="url(#a902f0f706)"><rect x="-37.5" width="450" fill="#000000" y="-37.499999" height="449.999989" fill-opacity="0.8784"/></g></mask><clipPath id="a71a6c262f"><path d="M 0.160156 1 L 40.480469 1 L 40.480469 102 L 0.160156 102 Z M 0.160156 1 " clip-rule="nonzero"/></clipPath><clipPath id="94d4cfe850"><rect x="0" width="41" y="0" height="109"/></clipPath></defs><g mask="url(#390222fe52)"><g transform="matrix(1, 0, 0, 1, 56, 117)"><g clip-path="url(#bd74d7817e)"><g clip-path="url(#a83300143e)"><path stroke-linecap="butt" transform="matrix(0.54892, 0, 0, 0.54892, -18.499998, 20.880504)" fill="none" stroke-linejoin="miter" d="M 63.533826 7.568774 L 43.337924 7.568774 L 43.337924 30.098804 L 52.653088 30.098804 C 57.741203 30.098804 60.103796 32.468513 60.103796 37.585093 L 60.103796 51.219817 C 60.103796 58.96229 62.985875 64.30659 68.871009 66.669183 C 62.985875 69.166985 60.103796 74.546866 60.103796 82.161247 L 60.103796 95.916947 C 60.103796 101.133154 57.741203 103.374771 52.653088 103.374771 L 43.337924 103.374771 L 43.337924 125.933266 L 63.533826 125.933266 C 77.289526 125.933266 85.003535 118.190792 85.003535 104.563184 L 85.003535 85.683788 C 85.003535 80.432 87.373244 78.097871 92.617916 78.097871 L 95.75618 78.097871 L 95.75618 55.539377 L 92.617916 55.539377 C 87.373244 55.539377 85.003535 53.169668 85.003535 47.917879 L 85.003535 29.074064 C 85.003535 15.311248 77.289526 7.568774 63.533826 7.568774 Z M 63.533826 7.568774 " stroke="#f578e8" stroke-width="5.570475" stroke-opacity="1" stroke-miterlimit="4"/></g></g></g></g><g mask="url(#b41f14a043)"><g transform="matrix(1, 0, 0, 1, 92, 114)"><g clip-path="url(#fd8727b70e)"><g clip-path="url(#f014383bdd)"><path stroke-linecap="butt" transform="matrix(0.75, 0, 0, 0.75, 0.212447, 20.97068)" fill="none" stroke-linejoin="miter" d="M 13.664655 85.997433 L 63.28445 85.997433 L 63.28445 69.320348 L 33.872989 69.320348 L 33.872989 58.414098 L 59.461533 58.414098 L 59.461533 42.02868 L 33.872989 42.02868 L 33.872989 31.716179 L 62.175075 31.716179 L 62.175075 15.257845 L 13.664655 15.257845 Z M 77.940701 85.997433 L 98.149035 85.997433 L 98.149035 50.12243 L 111.794869 69.22139 L 125.04487 69.22139 L 138.591746 50.221389 L 138.591746 85.997433 L 158.800081 85.997433 L 158.800081 15.257845 L 142.216746 15.257845 L 118.383412 48.914097 L 94.622993 15.257845 L 77.940701 15.257845 Z M 176.372999 85.997433 L 196.586542 85.997433 L 196.586542 49.924514 L 223.482377 85.997433 L 240.060503 85.997433 L 240.060503 15.257845 L 219.925085 15.257845 L 219.925085 51.132847 L 193.055291 15.257845 L 176.372999 15.257845 Z M 176.372999 85.997433 " stroke="#ffffff" stroke-width="10.1071" stroke-opacity="1" stroke-miterlimit="4"/></g><g fill="#000000" fill-opacity="1"><g transform="translate(4.853072, 85.470675)"><g><path d="M 5.609375 0 L 42.828125 0 L 42.828125 -12.507812 L 20.769531 -12.507812 L 20.769531 -20.695312 L 39.949219 -20.695312 L 39.949219 -32.972656 L 20.769531 -32.972656 L 20.769531 -40.707031 L 41.996094 -40.707031 L 41.996094 -53.0625 L 5.609375 -53.0625 Z M 5.609375 0 "/></g></g></g><g fill="#000000" fill-opacity="1"><g transform="translate(53.060063, 85.470675)"><g><path d="M 5.609375 0 L 20.769531 0 L 20.769531 -26.910156 L 31.003906 -12.582031 L 40.933594 -12.582031 L 51.089844 -26.835938 L 51.089844 0 L 66.25 0 L 66.25 -53.0625 L 53.820312 -53.0625 L 35.929688 -27.820312 L 18.117188 -53.0625 L 5.609375 -53.0625 Z M 5.609375 0 "/></g></g></g><g fill="#000000" fill-opacity="1"><g transform="translate(126.886404, 85.470675)"><g><path d="M 5.609375 0 L 20.769531 0 L 20.769531 -27.0625 L 40.933594 0 L 53.363281 0 L 53.363281 -53.0625 L 38.28125 -53.0625 L 38.28125 -26.152344 L 18.117188 -53.0625 L 5.609375 -53.0625 Z M 5.609375 0 "/></g></g></g></g></g></g><g mask="url(#3899f207f4)"><g transform="matrix(1, 0, 0, 1, 278, 122)"><g clip-path="url(#94d4cfe850)"><g clip-path="url(#a71a6c262f)"><path stroke-linecap="butt" transform="matrix(-0.54892, -0.000000000000000067, 0.000000000000000067, -0.54892, 59.496877, 88.052282)" fill="none" stroke-linejoin="miter" d="M 63.528139 7.567302 L 43.339354 7.567302 L 43.339354 30.097332 L 52.647402 30.097332 C 57.735517 30.097332 60.105226 32.467041 60.105226 37.583621 L 60.105226 51.218345 C 60.105226 58.960819 62.987305 64.305118 68.872439 66.674827 C 62.987305 69.165513 60.105226 74.545394 60.105226 82.159775 L 60.105226 95.922592 C 60.105226 101.138799 57.735517 103.373299 52.647402 103.373299 L 43.339354 103.373299 L 43.339354 125.93891 L 63.528139 125.93891 C 77.290956 125.93891 85.004965 118.18932 85.004965 104.561712 L 85.004965 85.682316 C 85.004965 80.430528 87.367558 78.0964 92.619346 78.0964 L 95.750494 78.0964 L 95.750494 55.537905 L 92.619346 55.537905 C 87.367558 55.537905 85.004965 53.168196 85.004965 47.923524 L 85.004965 29.072592 C 85.004965 15.316892 77.290956 7.567302 63.528139 7.567302 Z M 63.528139 7.567302 " stroke="#f578e8" stroke-width="5.570475" stroke-opacity="1" stroke-miterlimit="4"/></g></g></g></g></svg>