<svg xmlns="http://www.w3.org/2000/svg" xmlns:xlink="http://www.w3.org/1999/xlink" width="500" zoomAndPan="magnify" viewBox="0 0 375 374.999991" height="500" preserveAspectRatio="xMidYMid meet" version="1.0"><defs><filter x="0%" y="0%" width="100%" height="100%" id="1d10ec39a3"><feColorMatrix values="0 0 0 0 1 0 0 0 0 1 0 0 0 0 1 0 0 0 1 0" color-interpolation-filters="sRGB"/></filter><g/><mask id="d9651cf890"><g filter="url(#1d10ec39a3)"><rect x="-37.5" width="450" fill="#000000" y="-37.499999" height="449.999989" fill-opacity="0.8784"/></g></mask><clipPath id="0b61cd8f74"><path d="M 0.921875 18 L 119.71875 18 L 119.71875 156 L 0.921875 156 Z M 0.921875 18 " clip-rule="nonzero"/></clipPath><clipPath id="39881338fa"><rect x="0" width="120" y="0" height="175"/></clipPath><mask id="554f2e508a"><g filter="url(#1d10ec39a3)"><rect x="-37.5" width="450" fill="#000000" y="-37.499999" height="449.999989" fill-opacity="0.8784"/></g></mask><clipPath id="04fee6fa09"><path d="M 0.921875 33 L 41.71875 33 L 41.71875 162.519531 L 0.921875 162.519531 Z M 0.921875 33 " clip-rule="nonzero"/></clipPath><clipPath id="d681ec0483"><rect x="0" width="42" y="0" height="163"/></clipPath><mask id="14ffe1ecba"><g filter="url(#1d10ec39a3)"><rect x="-37.5" width="450" fill="#000000" y="-37.499999" height="449.999989" fill-opacity="0.8784"/></g></mask><clipPath id="8d631b0f9f"><path d="M 0.121094 0.121094 L 191.640625 0.121094 L 191.640625 118.921875 L 0.121094 118.921875 Z M 0.121094 0.121094 " clip-rule="nonzero"/></clipPath><clipPath id="cefdee623a"><rect x="0" width="192" y="0" height="119"/></clipPath></defs><g mask="url(#d9651cf890)"><g transform="matrix(1, 0, 0, 1, 25, 91)"><g clip-path="url(#39881338fa)"><g clip-path="url(#0b61cd8f74)"><path stroke-linecap="butt" transform="matrix(0.666577, -0.145985, 0.145985, 0.666577, -3.828704, 51.421535)" fill="none" stroke-linejoin="miter" d="M 78.483334 124.998369 L 106.553467 124.998618 L 111.49303 101.373965 L 132.630693 101.373735 L 132.632564 78.085852 L 116.428664 78.088341 L 120.004029 61.736251 L 135.909268 61.732815 L 135.909013 38.561669 L 124.792841 38.559116 L 129.386583 16.968384 L 101.31645 16.968136 L 96.833854 38.559768 L 78.479734 38.560157 L 83.115069 16.966814 L 55.008935 16.970401 L 50.374825 38.558152 L 28.78017 38.55792 L 28.7792 61.734657 L 45.586014 61.735287 L 42.045425 78.089133 L 25.690011 78.08774 L 25.693732 101.376848 L 37.10979 101.374757 L 32.170228 124.99941 L 60.245952 125.000883 L 65.221516 101.372394 L 83.568819 101.376373 Z M 68.608968 80.232417 L 72.90606 59.701869 L 93.288071 59.700231 L 88.954978 80.234615 Z M 68.608968 80.232417 " stroke="#ff32eb" stroke-width="6.559493" stroke-opacity="1" stroke-miterlimit="4"/></g></g></g></g><g mask="url(#554f2e508a)"><g transform="matrix(1, 0, 0, 1, 295, 83)"><g clip-path="url(#d681ec0483)"><g clip-path="url(#04fee6fa09)"><path stroke-linecap="butt" transform="matrix(0.821444, -0.0225355, 0.0225355, 0.821444, -12.062749, 32.245849)" fill="none" stroke-linejoin="miter" d="M 30.030629 115.951024 L 30.028834 127.630099 C 46.285521 126.830184 54.286611 112.174971 54.286371 99.183365 C 54.285449 88.816691 48.90749 79.790926 38.155662 79.790792 C 29.648362 79.790415 23.883731 85.552672 23.886567 93.422843 C 23.884201 101.135945 29.644443 106.800659 37.899769 106.798879 L 39.340597 106.800364 C 38.703337 112.175441 35.531792 114.765692 30.030629 115.951024 Z M 24.656123 48.211127 C 24.65512 56.047905 30.445105 61.84183 38.70043 61.840049 C 46.832079 61.839631 52.587989 56.048604 52.589123 48.207073 C 52.591039 40.337032 46.828652 34.577152 38.701755 34.577701 C 30.44656 34.574729 24.653418 40.336203 24.656123 48.211127 Z M 24.656123 48.211127 " stroke="#ff32eb" stroke-width="5.570475" stroke-opacity="1" stroke-miterlimit="4"/></g></g></g></g><g mask="url(#14ffe1ecba)"><g transform="matrix(1, 0, 0, 1, 111, 117)"><g clip-path="url(#cefdee623a)"><g clip-path="url(#8d631b0f9f)"><path stroke-linecap="butt" transform="matrix(0.75, 0, 0, 0.75, -0.546485, 20.586949)" fill="none" stroke-linejoin="miter" d="M 13.666147 85.998657 L 63.285942 85.998657 L 63.285942 69.321572 L 33.874482 69.321572 L 33.874482 58.415322 L 59.463025 58.415322 L 59.463025 42.029904 L 33.874482 42.029904 L 33.874482 31.712195 L 62.176567 31.712195 L 62.176567 15.253861 L 13.666147 15.253861 Z M 77.942193 85.998657 L 98.150528 85.998657 L 98.150528 50.123655 L 111.796362 69.222614 L 125.046363 69.222614 L 138.593239 50.222613 L 138.593239 85.998657 L 158.801573 85.998657 L 158.801573 15.253861 L 142.218239 15.253861 L 118.384904 48.915321 L 94.619277 15.253861 L 77.942193 15.253861 Z M 176.374491 85.998657 L 196.582826 85.998657 L 196.582826 49.925738 L 223.478661 85.998657 L 240.061995 85.998657 L 240.061995 15.253861 L 219.926577 15.253861 L 219.926577 51.134071 L 193.056784 15.253861 L 176.374491 15.253861 Z M 176.374491 85.998657 " stroke="#ffffff" stroke-width="10.1071" stroke-opacity="1" stroke-miterlimit="4"/></g><g fill="#000000" fill-opacity="1"><g transform="translate(4.09414, 85.086945)"><g><path d="M 5.609375 0 L 42.828125 0 L 42.828125 -12.507812 L 20.769531 -12.507812 L 20.769531 -20.695312 L 39.949219 -20.695312 L 39.949219 -32.972656 L 20.769531 -32.972656 L 20.769531 -40.707031 L 41.996094 -40.707031 L 41.996094 -53.0625 L 5.609375 -53.0625 Z M 5.609375 0 "/></g></g></g><g fill="#000000" fill-opacity="1"><g transform="translate(52.301132, 85.086945)"><g><path d="M 5.609375 0 L 20.769531 0 L 20.769531 -26.910156 L 31.003906 -12.582031 L 40.933594 -12.582031 L 51.089844 -26.835938 L 51.089844 0 L 66.25 0 L 66.25 -53.0625 L 53.820312 -53.0625 L 35.929688 -27.820312 L 18.117188 -53.0625 L 5.609375 -53.0625 Z M 5.609375 0 "/></g></g></g><g fill="#000000" fill-opacity="1"><g transform="translate(126.127472, 85.086945)"><g><path d="M 5.609375 0 L 20.769531 0 L 20.769531 -27.0625 L 40.933594 0 L 53.363281 0 L 53.363281 -53.0625 L 38.28125 -53.0625 L 38.28125 -26.152344 L 18.117188 -53.0625 L 5.609375 -53.0625 Z M 5.609375 0 "/></g></g></g></g></g></g></svg>